<svg width="48" height="48" viewBox="0 0 48 48" fill="none" xmlns="http://www.w3.org/2000/svg">
<g clip-path="url(#clip0_365_117)">
<path d="M39.634 8.31115C36.5747 6.90738 33.294 5.87315 29.8638 5.28081C29.8013 5.26937 29.7389 5.29794 29.7067 5.35508C29.2848 6.10551 28.8175 7.08451 28.4902 7.854C24.8008 7.30166 21.1304 7.30166 17.5166 7.854C17.1893 7.06741 16.705 6.10551 16.2811 5.35508C16.249 5.29985 16.1866 5.27128 16.1241 5.28081C12.6958 5.87126 9.41512 6.90549 6.35387 8.31115C6.32737 8.32257 6.30465 8.34164 6.28958 8.36638C0.0667834 17.6631 -1.6379 26.7313 -0.80164 35.6871C-0.797856 35.7309 -0.77326 35.7728 -0.739204 35.7995C3.36642 38.8145 7.34341 40.645 11.2466 41.8582C11.309 41.8773 11.3752 41.8544 11.415 41.803C12.3383 40.5421 13.1613 39.2127 13.867 37.8146C13.9086 37.7327 13.8688 37.6356 13.7837 37.6032C12.4783 37.108 11.2352 36.5042 10.0395 35.8185C9.94488 35.7633 9.93731 35.628 10.0243 35.5632C10.2759 35.3747 10.5276 35.1785 10.7679 34.9804C10.8114 34.9443 10.872 34.9366 10.9231 34.9595C18.7786 38.546 27.2831 38.546 35.0459 34.9595C35.097 34.9347 35.1576 34.9424 35.203 34.9785C35.4433 35.1766 35.6949 35.3747 35.9484 35.5632C36.0354 35.628 36.0298 35.7633 35.9352 35.8185C34.7394 36.5175 33.4964 37.108 32.189 37.6013C32.1039 37.6337 32.0661 37.7327 32.1077 37.8146C32.8285 39.2107 33.6515 40.5402 34.5578 41.8011C34.5956 41.8544 34.6637 41.8773 34.7262 41.8582C38.6483 40.645 42.6252 38.8145 46.7309 35.7995C46.7668 35.7728 46.7895 35.7328 46.7933 35.689C47.7942 25.3351 45.117 16.3413 39.6964 8.36827C39.6832 8.34164 39.6605 8.32257 39.634 8.31115ZM15.04 30.234C12.675 30.234 10.7263 28.0627 10.7263 25.3961C10.7263 22.7295 12.6372 20.5582 15.04 20.5582C17.4617 20.5582 19.3916 22.7486 19.3538 25.3961C19.3538 28.0627 17.4428 30.234 15.04 30.234ZM30.9895 30.234C28.6245 30.234 26.6758 28.0627 26.6758 25.3961C26.6758 22.7295 28.5867 20.5582 30.9895 20.5582C33.4113 20.5582 35.3411 22.7486 35.3033 25.3961C35.3033 28.0627 33.4113 30.234 30.9895 30.234Z" fill="#C5C5C5"/>
</g>
<defs>
<clipPath id="clip0_365_117">
<rect width="48" height="48" fill="white"/>
</clipPath>
</defs>
</svg>
