<svg width="50" height="50" viewBox="0 0 50 50" fill="none" xmlns="http://www.w3.org/2000/svg">
<path d="M40.7568 13.6621L43.75 10.7861V10.1562H33.3838L25.9961 28.6328L17.5928 10.1562H6.72363V10.7861L10.2197 15.0146C10.5615 15.3271 10.7373 15.7861 10.6934 16.2451V32.8613C10.8008 33.4619 10.6104 34.0723 10.1904 34.5068L6.25 39.3066V39.9268H17.4121V39.2969L13.4766 34.5117C13.2657 34.2976 13.1071 34.0378 13.0131 33.7524C12.9191 33.467 12.8922 33.1637 12.9346 32.8662V18.4912L22.7344 39.9365H23.8721L32.2998 18.4912V35.5762C32.2998 36.0254 32.2998 36.1182 32.0068 36.416L28.9746 39.3603V39.9902H43.6816V39.3603L40.7568 36.4844C40.5029 36.2891 40.3711 35.9619 40.4248 35.6445V14.502C40.3995 14.345 40.417 14.1842 40.4754 14.0364C40.5339 13.8886 40.6311 13.7593 40.7568 13.6621Z" fill="#C5C5C5"/>
</svg>
