<svg width="132" height="33" viewBox="0 0 132 33" fill="none" xmlns="http://www.w3.org/2000/svg">
<path d="M10.7487 0H33V22.2513C33 25.1021 31.8676 27.836 29.8518 29.8518C27.836 31.8676 25.1021 33 22.2513 33H0V10.7487C0 7.89793 1.13244 5.16397 3.14821 3.14821C5.16397 1.13244 7.89793 0 10.7487 0V0Z" fill="url(#paint0_linear_9_33)"/>
<path d="M26.072 12.986L23.8658 13.9969L22.317 14.7067L22.2479 14.7378L20.1184 15.6997C20.1184 15.6914 20.1149 15.6831 20.1121 15.6748C19.9864 15.1508 19.744 14.662 19.403 14.2448L19.2062 13.8146L21.3309 12.8409L22.9025 12.1207L25.1281 11.1008C25.2515 11.2933 25.3665 11.4901 25.4733 11.6912L26.0548 12.9597L26.072 12.986Z" fill="white"/>
<path d="M26.4318 18.8146C26.2682 19.5104 26.0309 20.1868 25.724 20.8323L18.8236 19.6543L18.8885 19.2738C19.3919 18.8649 19.7739 18.3263 19.9934 17.716L26.4318 18.8146Z" fill="white"/>
<path d="M13.9941 19.9119L11.2065 21.8861L9.21362 23.2975C8.73781 22.7777 8.31776 22.2096 7.96033 21.6023L9.94281 20.1978L11.3356 19.211L12.776 18.1911L13.9941 19.9119Z" fill="white"/>
<path d="M14.26 11.241L13.3982 13.1648L12.136 12.5993L10.5374 11.8832L8.28699 10.8743C8.69716 10.266 9.17277 9.7045 9.70532 9.19983L12.1608 10.2998L14.0383 11.1423L14.26 11.241Z" fill="white"/>
<path d="M24.0433 18.4066C23.7062 19.7154 23.0285 20.9115 22.079 21.8733C21.1295 22.835 19.9421 23.528 18.6377 23.8818C17.3334 24.2356 15.9585 24.2375 14.6532 23.8873C13.3479 23.5371 12.1586 22.8473 11.2065 21.8882C10.7097 21.3864 10.2845 20.8185 9.94281 20.2005L7.96033 21.605C8.97778 23.339 10.4914 24.7283 12.3059 25.5939C14.1204 26.4595 16.1526 26.7616 18.1404 26.4613C20.1283 26.161 21.9805 25.2721 23.4584 23.9091C24.9363 22.5462 25.9719 20.7717 26.4318 18.8147L24.0433 18.4066Z" fill="white"/>
<path d="M12.1608 10.2998C13.1281 9.60269 14.2449 9.14118 15.4221 8.9521C16.5994 8.76302 17.8045 8.8516 18.9415 9.21077C20.0784 9.56994 21.1157 10.1898 21.9707 11.0209C22.8256 11.8519 23.4746 12.8713 23.8658 13.9976L26.0721 12.9866C26.0679 12.9763 26.0645 12.9659 26.0603 12.9563L25.4789 11.6878C25.3698 11.4871 25.2547 11.2903 25.1336 11.0974C24.2359 9.68805 23.0017 8.52422 21.5421 7.71078C20.0825 6.89733 18.4434 6.45984 16.7726 6.43771C15.1018 6.41559 13.4517 6.80953 11.9711 7.58403C10.4905 8.35854 9.22585 9.48928 8.29114 10.8743L10.5415 11.8832C10.9997 11.278 11.5455 10.7443 12.1608 10.2998Z" fill="white"/>
<path d="M9.12864 15.0382C9.21302 14.6043 9.33454 14.1786 9.49185 13.7655L7.28218 12.7753C6.41247 14.9663 6.33674 17.3926 7.06812 19.6336L9.16454 18.149C8.93911 17.1255 8.92689 16.0666 9.12864 15.0382V15.0382Z" fill="white"/>
<path d="M23.7553 13.702L22.2341 14.4664L22.1678 14.5003L20.0811 15.5478" fill="white"/>
<path d="M12.6752 18.2449L11.328 19.1992C10.987 18.5316 10.7761 17.8051 10.7065 17.0586L11.4578 16.5269L12.6752 18.2449Z" fill="white"/>
<path d="M13.6882 13.3353L12.8265 15.2591L11.0408 14.4568C11.2836 13.7868 11.6458 13.1664 12.1097 12.6255L13.6882 13.3353Z" fill="white"/>
<path d="M22.3667 18.1206C22.0413 19.2719 21.3767 20.2985 20.4595 21.0666C19.5422 21.8347 18.4148 22.3087 17.2243 22.4268C16.0337 22.5448 14.8352 22.3015 13.7849 21.7285C12.7347 21.1555 11.8814 20.2794 11.3363 19.2144C11.3331 19.21 11.3305 19.2051 11.3287 19.1999C10.7948 18.15 10.5842 16.9654 10.7234 15.7958C10.8627 14.6262 11.3456 13.5241 12.1111 12.6289L12.1366 12.5999C12.8307 11.8 13.7255 11.1996 14.7287 10.8605C15.732 10.5214 16.8076 10.4558 17.8446 10.6706C18.8816 10.8853 19.8427 11.3726 20.6288 12.0823C21.4149 12.792 21.9976 13.6983 22.317 14.7081V14.7081L22.2479 14.7385L20.1183 15.6997C20.1183 15.6914 20.1149 15.6831 20.1121 15.6748C19.9136 14.8396 19.4211 14.1037 18.7247 13.6017C18.0284 13.0997 17.1746 12.865 16.3194 12.9406C15.4643 13.0162 14.6649 13.397 14.0674 14.0134C13.4699 14.6298 13.1141 15.4407 13.0652 16.2978C13.0163 17.1548 13.2774 18.0009 13.8009 18.6813C14.3243 19.3618 15.0752 19.8311 15.9162 20.0035C16.7571 20.1759 17.6321 20.04 18.3811 19.6205C19.1301 19.201 19.7031 18.5259 19.9954 17.7187L22.3667 18.1206Z" fill="white"/>
<path d="M45.616 25.288C44.48 25.288 43.456 25.112 42.544 24.76C41.632 24.392 40.856 23.856 40.216 23.152C39.576 22.432 39.08 21.544 38.728 20.488C38.376 19.416 38.2 18.168 38.2 16.744C38.2 15.336 38.376 14.088 38.728 13C39.08 11.896 39.576 10.976 40.216 10.24C40.856 9.488 41.632 8.92 42.544 8.536C43.456 8.152 44.48 7.96 45.616 7.96C47.168 7.96 48.448 8.28 49.456 8.92C50.464 9.544 51.272 10.536 51.88 11.896L48.736 13.528C48.512 12.824 48.16 12.264 47.68 11.848C47.216 11.416 46.528 11.2 45.616 11.2C44.544 11.2 43.68 11.552 43.024 12.256C42.384 12.944 42.064 13.952 42.064 15.28V17.968C42.064 19.296 42.384 20.312 43.024 21.016C43.68 21.704 44.544 22.048 45.616 22.048C46.512 22.048 47.224 21.808 47.752 21.328C48.296 20.832 48.696 20.24 48.952 19.552L51.928 21.28C51.304 22.56 50.48 23.552 49.456 24.256C48.448 24.944 47.168 25.288 45.616 25.288ZM59.4008 25.288C58.4728 25.288 57.6408 25.136 56.9048 24.832C56.1848 24.528 55.5688 24.088 55.0568 23.512C54.5608 22.936 54.1768 22.24 53.9048 21.424C53.6328 20.608 53.4968 19.696 53.4968 18.688C53.4968 17.68 53.6328 16.768 53.9048 15.952C54.1768 15.136 54.5608 14.448 55.0568 13.888C55.5688 13.312 56.1848 12.872 56.9048 12.568C57.6408 12.264 58.4728 12.112 59.4008 12.112C60.3288 12.112 61.1528 12.264 61.8728 12.568C62.6088 12.872 63.2248 13.312 63.7208 13.888C64.2328 14.448 64.6248 15.136 64.8968 15.952C65.1688 16.768 65.3048 17.68 65.3048 18.688C65.3048 19.696 65.1688 20.608 64.8968 21.424C64.6248 22.24 64.2328 22.936 63.7208 23.512C63.2248 24.088 62.6088 24.528 61.8728 24.832C61.1528 25.136 60.3288 25.288 59.4008 25.288ZM59.4008 22.48C60.1048 22.48 60.6488 22.264 61.0328 21.832C61.4168 21.4 61.6088 20.784 61.6088 19.984V17.416C61.6088 16.616 61.4168 16 61.0328 15.568C60.6488 15.136 60.1048 14.92 59.4008 14.92C58.6968 14.92 58.1528 15.136 57.7688 15.568C57.3848 16 57.1928 16.616 57.1928 17.416V19.984C57.1928 20.784 57.3848 21.4 57.7688 21.832C58.1528 22.264 58.6968 22.48 59.4008 22.48ZM69.6117 11.056C68.8917 11.056 68.3637 10.896 68.0277 10.576C67.7077 10.24 67.5477 9.816 67.5477 9.304V8.776C67.5477 8.264 67.7077 7.848 68.0277 7.528C68.3637 7.192 68.8917 7.024 69.6117 7.024C70.3317 7.024 70.8517 7.192 71.1717 7.528C71.5077 7.848 71.6757 8.264 71.6757 8.776V9.304C71.6757 9.816 71.5077 10.24 71.1717 10.576C70.8517 10.896 70.3317 11.056 69.6117 11.056ZM67.8357 12.4H71.3877V25H67.8357V12.4ZM74.7029 25V12.4H78.2549V14.536H78.3989C78.6229 13.88 79.0149 13.312 79.5749 12.832C80.1349 12.352 80.9109 12.112 81.9029 12.112C83.1989 12.112 84.1749 12.544 84.8309 13.408C85.5029 14.272 85.8389 15.504 85.8389 17.104V25H82.2869V17.392C82.2869 16.576 82.1589 15.976 81.9029 15.592C81.6469 15.192 81.1909 14.992 80.5349 14.992C80.2469 14.992 79.9669 15.032 79.6949 15.112C79.4229 15.176 79.1749 15.288 78.9509 15.448C78.7429 15.608 78.5749 15.808 78.4469 16.048C78.3189 16.272 78.2549 16.536 78.2549 16.84V25H74.7029ZM93.2718 25.288C92.0558 25.288 91.0318 25.096 90.1998 24.712C89.3678 24.312 88.6238 23.752 87.9678 23.032L90.0558 20.92C90.5038 21.416 90.9998 21.808 91.5438 22.096C92.0878 22.384 92.7038 22.528 93.3918 22.528C94.0958 22.528 94.5838 22.424 94.8558 22.216C95.1278 21.992 95.2638 21.696 95.2638 21.328C95.2638 20.736 94.8398 20.384 93.9918 20.272L92.6238 20.104C89.7918 19.752 88.3758 18.456 88.3758 16.216C88.3758 15.608 88.4878 15.056 88.7118 14.56C88.9518 14.048 89.2798 13.616 89.6958 13.264C90.1278 12.896 90.6398 12.616 91.2318 12.424C91.8398 12.216 92.5198 12.112 93.2718 12.112C93.9278 12.112 94.5038 12.16 94.9998 12.256C95.5118 12.336 95.9598 12.464 96.3438 12.64C96.7438 12.8 97.1038 13.008 97.4238 13.264C97.7598 13.504 98.0878 13.776 98.4078 14.08L96.3678 16.168C95.9678 15.768 95.5118 15.456 94.9998 15.232C94.5038 14.992 93.9918 14.872 93.4638 14.872C92.8558 14.872 92.4238 14.968 92.1678 15.16C91.9118 15.352 91.7838 15.608 91.7838 15.928C91.7838 16.264 91.8718 16.528 92.0478 16.72C92.2398 16.896 92.5918 17.024 93.1038 17.104L94.5198 17.296C97.2878 17.664 98.6718 18.928 98.6718 21.088C98.6718 21.696 98.5438 22.256 98.2878 22.768C98.0318 23.28 97.6638 23.728 97.1838 24.112C96.7198 24.48 96.1518 24.768 95.4798 24.976C94.8238 25.184 94.0878 25.288 93.2718 25.288ZM108.534 22.888H108.414C108.302 23.208 108.15 23.512 107.958 23.8C107.782 24.088 107.55 24.344 107.262 24.568C106.974 24.792 106.63 24.968 106.23 25.096C105.846 25.224 105.398 25.288 104.886 25.288C103.59 25.288 102.606 24.864 101.934 24.016C101.278 23.152 100.95 21.92 100.95 20.32V12.4H104.502V20.008C104.502 20.776 104.638 21.368 104.91 21.784C105.182 22.2 105.646 22.408 106.302 22.408C106.574 22.408 106.846 22.368 107.118 22.288C107.39 22.208 107.63 22.096 107.838 21.952C108.046 21.792 108.214 21.6 108.342 21.376C108.47 21.152 108.534 20.888 108.534 20.584V12.4H112.086V25H108.534V22.888ZM118.918 25C117.702 25 116.806 24.704 116.23 24.112C115.67 23.52 115.39 22.664 115.39 21.544V7.24H118.942V22.24H120.526V25H118.918ZM126.955 25C125.723 25 124.787 24.688 124.147 24.064C123.523 23.44 123.211 22.528 123.211 21.328V15.16H121.435V12.4H122.323C122.803 12.4 123.131 12.288 123.307 12.064C123.483 11.824 123.571 11.488 123.571 11.056V8.992H126.763V12.4H129.259V15.16H126.763V22.24H129.067V25H126.955Z" fill="#2B857F"/>
<defs>
<linearGradient id="paint0_linear_9_33" x1="0.527558" y1="0.823102" x2="48.8309" y2="48.2322" gradientUnits="userSpaceOnUse">
<stop stop-color="#3B916F"/>
<stop offset="1" stop-color="#096AA5"/>
</linearGradient>
</defs>
</svg>
