<svg width="123" height="32" viewBox="0 0 123 32" fill="none" xmlns="http://www.w3.org/2000/svg">
<g clip-path="url(#clip0_457_181)">
<path d="M17.7599 2.4C17.7603 2.87521 17.6198 3.33987 17.3561 3.73521C17.0924 4.13054 16.7174 4.43879 16.2785 4.62095C15.8396 4.80311 15.3565 4.851 14.8904 4.75856C14.4243 4.66612 13.996 4.4375 13.6598 4.10164C13.3237 3.76577 13.0947 3.33774 13.0018 2.87169C12.9089 2.40564 12.9564 1.92252 13.1381 1.48345C13.3199 1.04437 13.6278 0.66906 14.0228 0.405002C14.4179 0.140944 14.8825 2.03331e-07 15.3577 0C15.9944 -2.72439e-07 16.6051 0.252785 17.0555 0.702809C17.506 1.15283 17.7593 1.76328 17.7599 2.4ZM15.3577 6.70222C14.8637 6.70222 14.3807 6.84871 13.97 7.12317C13.5592 7.39763 13.2391 7.78773 13.05 8.24414C12.861 8.70055 12.8115 9.20277 12.9079 9.68729C13.0043 10.1718 13.2422 10.6169 13.5915 10.9662C13.9408 11.3155 14.3859 11.5534 14.8704 11.6498C15.3549 11.7462 15.8571 11.6967 16.3135 11.5076C16.7699 11.3186 17.16 10.9984 17.4345 10.5877C17.709 10.1769 17.8555 9.69401 17.8555 9.2C17.8555 8.53755 17.5923 7.90223 17.1239 7.4338C16.6555 6.96538 16.0201 6.70222 15.3577 6.70222ZM15.3577 13.4067C14.8446 13.4084 14.3436 13.5622 13.9179 13.8486C13.4922 14.1349 13.1609 14.541 12.9658 15.0156C12.7708 15.4902 12.7208 16.0119 12.8221 16.5148C12.9235 17.0178 13.1716 17.4794 13.5352 17.8415C13.8987 18.2035 14.3614 18.4496 14.8648 18.5488C15.3682 18.648 15.8897 18.5958 16.3634 18.3987C16.8371 18.2017 17.2418 17.8686 17.5264 17.4417C17.8109 17.0148 17.9626 16.5131 17.9621 16C17.9618 15.6586 17.8942 15.3206 17.7631 15.0054C17.6319 14.6901 17.4399 14.4039 17.198 14.163C16.956 13.9221 16.669 13.7312 16.3532 13.6015C16.0374 13.4717 15.6991 13.4055 15.3577 13.4067ZM15.3577 20.2956C14.8637 20.2956 14.3807 20.442 13.97 20.7165C13.5592 20.991 13.2391 21.3811 13.05 21.8375C12.861 22.2939 12.8115 22.7961 12.9079 23.2806C13.0043 23.7651 13.2422 24.2102 13.5915 24.5595C13.9408 24.9088 14.3859 25.1467 14.8704 25.2431C15.3549 25.3395 15.8571 25.29 16.3135 25.101C16.7699 24.9119 17.16 24.5918 17.4345 24.181C17.709 23.7703 17.8555 23.2873 17.8555 22.7933C17.8543 22.1317 17.5906 21.4975 17.1223 21.03C16.654 20.5625 16.0194 20.3 15.3577 20.3V20.2956ZM15.3577 27.1844C14.8826 27.1844 14.4181 27.3253 14.0231 27.5893C13.628 27.8533 13.3201 28.2284 13.1383 28.6674C12.9565 29.1063 12.9089 29.5893 13.0016 30.0553C13.0943 30.5213 13.3231 30.9493 13.6591 31.2853C13.995 31.6213 14.423 31.85 14.889 31.9427C15.355 32.0354 15.838 31.9878 16.277 31.806C16.7159 31.6242 17.0911 31.3163 17.3551 30.9213C17.619 30.5262 17.7599 30.0618 17.7599 29.5867C17.757 28.9515 17.5026 28.3433 17.0524 27.8952C16.6022 27.4471 15.9929 27.1956 15.3577 27.1956V27.1844ZM21.9621 6.38222C21.4048 6.38222 20.86 6.54748 20.3967 6.8571C19.9333 7.16673 19.5721 7.6068 19.3588 8.12168C19.1456 8.63656 19.0898 9.20313 19.1985 9.74972C19.3072 10.2963 19.5756 10.7984 19.9697 11.1925C20.3637 11.5865 20.8658 11.8549 21.4124 11.9636C21.959 12.0724 22.5256 12.0166 23.0404 11.8033C23.5553 11.59 23.9954 11.2289 24.305 10.7655C24.6146 10.3021 24.7799 9.7573 24.7799 9.2C24.7799 8.45268 24.483 7.73597 23.9546 7.20753C23.4262 6.67909 22.7094 6.38222 21.9621 6.38222ZM21.9621 13.0867C21.3855 13.0867 20.8218 13.2577 20.3423 13.578C19.8629 13.8984 19.4892 14.3537 19.2685 14.8865C19.0478 15.4192 18.9901 16.0055 19.1026 16.571C19.2151 17.1366 19.4928 17.6561 19.9005 18.0638C20.3083 18.4716 20.8278 18.7493 21.3933 18.8618C21.9589 18.9743 22.5451 18.9165 23.0779 18.6958C23.6106 18.4752 24.066 18.1015 24.3863 17.622C24.7067 17.1426 24.8777 16.5789 24.8777 16.0022C24.878 15.6192 24.8028 15.2398 24.6564 14.8858C24.51 14.5318 24.2953 14.2101 24.0245 13.9392C23.7538 13.6682 23.4323 13.4532 23.0784 13.3066C22.7245 13.1599 22.3452 13.0844 21.9621 13.0844V13.0867ZM21.9621 19.9756C21.4048 19.9756 20.86 20.1408 20.3967 20.4504C19.9333 20.7601 19.5721 21.2001 19.3588 21.715C19.1456 22.2299 19.0898 22.7965 19.1985 23.3431C19.3072 23.8897 19.5756 24.3917 19.9697 24.7858C20.3637 25.1799 20.8658 25.4482 21.4124 25.557C21.959 25.6657 22.5256 25.6099 23.0404 25.3966C23.5553 25.1833 23.9954 24.8222 24.305 24.3588C24.6146 23.8954 24.7799 23.3506 24.7799 22.7933C24.7787 22.0468 24.4813 21.3312 23.953 20.8037C23.4247 20.2763 22.7087 19.98 21.9621 19.98V19.9756ZM28.7532 12.76C28.1133 12.76 27.4877 12.9498 26.9557 13.3053C26.4236 13.6608 26.0089 14.1661 25.764 14.7574C25.5191 15.3486 25.455 15.9991 25.5799 16.6268C25.7047 17.2544 26.0129 17.8309 26.4654 18.2834C26.9179 18.7359 27.4944 19.0441 28.122 19.1689C28.7497 19.2938 29.4002 19.2297 29.9914 18.9848C30.5827 18.7399 31.088 18.3252 31.4435 17.7931C31.799 17.2611 31.9888 16.6355 31.9888 15.9956C31.9876 15.1401 31.6477 14.32 31.0435 13.7145C30.4392 13.109 29.6198 12.7674 28.7644 12.7644L28.7532 12.76ZM8.65546 7.02222C8.22474 7.02222 7.80368 7.14995 7.44555 7.38924C7.08742 7.62854 6.80828 7.96866 6.64345 8.3666C6.47862 8.76454 6.43549 9.20242 6.51953 9.62486C6.60356 10.0473 6.81097 10.4354 7.11554 10.7399C7.4201 11.0445 7.80815 11.2519 8.23059 11.3359C8.65304 11.42 9.09092 11.3768 9.48886 11.212C9.8868 11.0472 10.2269 10.768 10.4662 10.4099C10.7055 10.0518 10.8332 9.63072 10.8332 9.2C10.8332 8.62242 10.6038 8.06849 10.1954 7.66008C9.78697 7.25167 9.23304 7.02222 8.65546 7.02222ZM8.65546 13.7267C8.20584 13.7267 7.76631 13.86 7.39246 14.1098C7.01861 14.3596 6.72723 14.7146 6.55517 15.13C6.38311 15.5454 6.33809 16.0025 6.42581 16.4435C6.51352 16.8845 6.73004 17.2896 7.04797 17.6075C7.3659 17.9254 7.77097 18.1419 8.21195 18.2297C8.65294 18.3174 9.11003 18.2724 9.52543 18.1003C9.94082 17.9282 10.2959 17.6368 10.5457 17.263C10.7955 16.8891 10.9288 16.4496 10.9288 16C10.927 15.3982 10.6867 14.8217 10.2606 14.3968C9.83445 13.9719 9.25723 13.7333 8.65546 13.7333V13.7267ZM8.65546 20.6156C8.22474 20.6156 7.80368 20.7433 7.44555 20.9826C7.08742 21.2219 6.80828 21.562 6.64345 21.9599C6.47862 22.3579 6.43549 22.7957 6.51953 23.2182C6.60356 23.6406 6.81097 24.0287 7.11554 24.3333C7.4201 24.6378 7.80815 24.8452 8.23059 24.9293C8.65304 25.0133 9.09092 24.9702 9.48886 24.8053C9.8868 24.6405 10.2269 24.3614 10.4662 24.0032C10.7055 23.6451 10.8332 23.2241 10.8332 22.7933C10.8315 22.2169 10.6012 21.6647 10.193 21.2577C9.78481 20.8507 9.23189 20.6222 8.65546 20.6222V20.6156ZM1.96212 14.0467C1.57579 14.0467 1.19813 14.1612 0.87691 14.3759C0.555686 14.5905 0.305322 14.8956 0.157479 15.2525C0.00963551 15.6094 -0.0290472 16.0022 0.0463227 16.3811C0.121692 16.76 0.307729 17.108 0.580908 17.3812C0.854086 17.6544 1.20214 17.8404 1.58105 17.9158C1.95996 17.9912 2.35271 17.9525 2.70963 17.8046C3.06656 17.6568 3.37163 17.4064 3.58626 17.0852C3.8009 16.764 3.91546 16.3863 3.91546 16C3.91546 15.4819 3.70966 14.9851 3.34334 14.6188C2.97702 14.2525 2.48018 14.0467 1.96212 14.0467Z" fill="#00B0B9"/>
<path d="M58.6177 11.7889H56.5777C56.3446 11.7889 56.1555 11.978 56.1555 12.2112V29.1756C56.1555 29.4088 56.3446 29.5978 56.5777 29.5978H58.6177C58.8509 29.5978 59.04 29.4088 59.04 29.1756V12.2112C59.04 11.978 58.8509 11.7889 58.6177 11.7889Z" fill="#002A3A"/>
<path d="M57.5978 4.66003C57.2119 4.66004 56.8346 4.77438 56.5136 4.98862C56.1925 5.20287 55.9422 5.50741 55.7941 5.86382C55.646 6.22023 55.6068 6.61252 55.6814 6.99119C55.7561 7.36985 55.9412 7.71792 56.2135 7.99144C56.4858 8.26497 56.833 8.45171 57.2113 8.52808C57.5897 8.60445 57.9821 8.56703 58.3392 8.42055C58.6963 8.27407 59.002 8.02509 59.2177 7.70504C59.4334 7.38499 59.5494 7.00821 59.5512 6.62226C59.5521 6.36508 59.5022 6.11025 59.4044 5.87236C59.3067 5.63448 59.163 5.41821 58.9816 5.23595C58.8001 5.05368 58.5845 4.90899 58.3471 4.81017C58.1096 4.71134 57.855 4.66032 57.5978 4.66003Z" fill="#002A3A"/>
<path d="M102.184 11.7889H100.144C99.9112 11.7889 99.7222 11.978 99.7222 12.2112V29.1756C99.7222 29.4088 99.9112 29.5978 100.144 29.5978H102.184C102.418 29.5978 102.607 29.4088 102.607 29.1756V12.2112C102.607 11.978 102.418 11.7889 102.184 11.7889Z" fill="#002A3A"/>
<path d="M101.165 4.66003C100.646 4.66003 100.15 4.86583 99.7833 5.23215C99.417 5.59847 99.2112 6.09531 99.2112 6.61337C99.2112 7.13142 99.417 7.62826 99.7833 7.99458C100.15 8.3609 100.646 8.5667 101.165 8.5667C101.683 8.5667 102.179 8.3609 102.546 7.99458C102.912 7.62826 103.118 7.13142 103.118 6.61337C103.118 6.09531 102.912 5.59847 102.546 5.23215C102.179 4.86583 101.683 4.66003 101.165 4.66003Z" fill="#002A3A"/>
<path d="M73.4111 11.7889H69.06V5.25108C69.06 5.1391 69.0155 5.03171 68.9363 4.95252C68.8572 4.87334 68.7498 4.82886 68.6378 4.82886H66.5978C66.4858 4.82886 66.3784 4.87334 66.2992 4.95252C66.2201 5.03171 66.1756 5.1391 66.1756 5.25108V11.7889H63.9867C63.8747 11.7889 63.7673 11.8333 63.6881 11.9125C63.6089 11.9917 63.5645 12.0991 63.5645 12.2111V14.2511C63.5645 14.3631 63.6089 14.4705 63.6881 14.5496C63.7673 14.6288 63.8747 14.6733 63.9867 14.6733H66.1845V24.5711C66.1845 27.5777 68.2044 29.5977 71.2111 29.5977H73.42C73.532 29.5977 73.6394 29.5533 73.7186 29.4741C73.7977 29.3949 73.8422 29.2875 73.8422 29.1755V27.1333C73.8422 27.0213 73.7977 26.9139 73.7186 26.8347C73.6394 26.7556 73.532 26.7111 73.42 26.7111H71.4667C70.0556 26.7111 69.0689 25.6977 69.0689 24.2489V14.6733H73.42C73.532 14.6733 73.6394 14.6288 73.7186 14.5496C73.7977 14.4705 73.8422 14.3631 73.8422 14.2511V12.2111C73.8422 12.1549 73.831 12.0992 73.8093 12.0474C73.7875 11.9956 73.7556 11.9487 73.7154 11.9093C73.6753 11.87 73.6277 11.8391 73.5754 11.8184C73.5232 11.7977 73.4673 11.7877 73.4111 11.7889Z" fill="#002A3A"/>
<path d="M116.544 11.7889H112.184V5.25108C112.184 5.1391 112.14 5.03171 112.061 4.95252C111.981 4.87334 111.874 4.82886 111.762 4.82886H109.74C109.628 4.82886 109.521 4.87334 109.441 4.95252C109.362 5.03171 109.318 5.1391 109.318 5.25108V11.7889H107.129C107.017 11.7889 106.909 11.8333 106.83 11.9125C106.751 11.9917 106.707 12.0991 106.707 12.2111V14.2511C106.707 14.3631 106.751 14.4705 106.83 14.5496C106.909 14.6288 107.017 14.6733 107.129 14.6733H109.318V24.5711C109.318 27.5777 111.338 29.5977 114.344 29.5977H116.553C116.665 29.5977 116.773 29.5533 116.852 29.4741C116.931 29.3949 116.975 29.2875 116.975 29.1755V27.1333C116.975 27.0213 116.931 26.9139 116.852 26.8347C116.773 26.7556 116.665 26.7111 116.553 26.7111H114.6C113.189 26.7111 112.204 25.6977 112.204 24.2489V14.6733H116.555C116.667 14.6733 116.775 14.6288 116.854 14.5496C116.933 14.4705 116.978 14.3631 116.978 14.2511V12.2111C116.978 12.1547 116.966 12.0989 116.945 12.0469C116.923 11.9949 116.891 11.9479 116.85 11.9085C116.81 11.8692 116.762 11.8383 116.709 11.8178C116.657 11.7972 116.601 11.7874 116.544 11.7889Z" fill="#002A3A"/>
<path d="M51.3622 2.40002H49.14C47.6919 2.40179 46.3035 2.97784 45.2796 4.00182C44.2556 5.0258 43.6795 6.41412 43.6778 7.86225V11.7867H41.4889C41.3769 11.7867 41.2695 11.8312 41.1903 11.9104C41.1111 11.9895 41.0667 12.0969 41.0667 12.2089V14.2489C41.0667 14.3609 41.1111 14.4683 41.1903 14.5475C41.2695 14.6267 41.3769 14.6711 41.4889 14.6711H43.6778V29.1734C43.6778 29.2853 43.7222 29.3927 43.8014 29.4719C43.8806 29.5511 43.988 29.5956 44.1 29.5956H46.14C46.252 29.5956 46.3594 29.5511 46.4385 29.4719C46.5177 29.3927 46.5622 29.2853 46.5622 29.1734V14.6734H51.3622C51.4742 14.6734 51.5816 14.6289 51.6608 14.5497C51.74 14.4705 51.7844 14.3631 51.7844 14.2511V12.2111C51.7844 12.0992 51.74 11.9918 51.6608 11.9126C51.5816 11.8334 51.4742 11.7889 51.3622 11.7889H46.5622V7.86447C46.5622 6.39558 47.5933 5.28669 48.96 5.28669H51.3622C51.4742 5.28669 51.5816 5.24221 51.6608 5.16302C51.74 5.08384 51.7844 4.97645 51.7844 4.86447V2.82447C51.7847 2.76884 51.774 2.71369 51.7529 2.66221C51.7319 2.61073 51.7008 2.56392 51.6616 2.52448C51.6223 2.48503 51.5757 2.45373 51.5243 2.43237C51.4729 2.41102 51.4178 2.40002 51.3622 2.40002Z" fill="#002A3A"/>
<path d="M86.9311 11.1756C84.7089 11.1756 82.3689 12.1644 81.0222 13.6067V2.82444C81.0222 2.71246 80.9777 2.60507 80.8985 2.52589C80.8193 2.44671 80.712 2.40222 80.6 2.40222H78.5555C78.5001 2.40222 78.4452 2.41314 78.3939 2.43436C78.3427 2.45558 78.2962 2.48668 78.257 2.52589C78.2178 2.56509 78.1867 2.61164 78.1654 2.66287C78.1442 2.71409 78.1333 2.769 78.1333 2.82444V20.6978C78.1333 27.3089 82.5511 30.2667 86.9289 30.2667C91.3066 30.2667 95.7244 27.3089 95.7244 20.6978C95.7244 17.9644 94.8711 15.5867 93.2533 13.8533C92.4437 12.9918 91.4633 12.3086 90.3747 11.8475C89.2861 11.3864 88.1132 11.1576 86.9311 11.1756ZM86.9311 27.38C82.5755 27.38 81.0222 23.9289 81.0222 20.6978C81.0222 16.7289 83.3977 14.0622 86.9311 14.0622C90.4644 14.0622 92.84 16.7289 92.84 20.6978C92.8511 23.9267 91.2955 27.38 86.9311 27.38Z" fill="#002A3A"/>
<path d="M121.629 28.2689C121.749 28.2458 121.856 28.1789 121.93 28.0811C122.003 27.9833 122.038 27.8617 122.027 27.7398C122.016 27.6179 121.96 27.5045 121.87 27.4216C121.78 27.3387 121.662 27.2922 121.54 27.2911H120.835V28.9245H121.044V28.2778H121.318L121.78 28.9223H122.038L121.573 28.2756L121.629 28.2689ZM121.044 28.0689V27.5H121.538C121.613 27.5 121.685 27.53 121.739 27.5833C121.792 27.6367 121.822 27.709 121.822 27.7845C121.822 27.8599 121.792 27.9323 121.739 27.9856C121.685 28.0389 121.613 28.0689 121.538 28.0689H121.044Z" fill="#002A3A"/>
<path d="M121.371 26.6222C121.07 26.6222 120.776 26.7115 120.525 26.8787C120.275 27.046 120.08 27.2837 119.965 27.5619C119.85 27.84 119.819 28.1461 119.878 28.4414C119.937 28.7367 120.082 29.0079 120.295 29.2208C120.508 29.4337 120.779 29.5787 121.074 29.6374C121.369 29.6961 121.675 29.666 121.954 29.5508C122.232 29.4356 122.47 29.2404 122.637 28.9901C122.804 28.7398 122.893 28.4455 122.893 28.1444C122.893 27.7409 122.732 27.354 122.447 27.0687C122.161 26.7833 121.775 26.6228 121.371 26.6222ZM121.371 29.5111C121.101 29.5111 120.837 29.4309 120.612 29.2808C120.387 29.1306 120.212 28.9171 120.108 28.6674C120.005 28.4177 119.978 28.1429 120.031 27.8778C120.083 27.6127 120.214 27.3692 120.405 27.178C120.596 26.9869 120.839 26.8567 121.104 26.804C121.37 26.7513 121.644 26.7783 121.894 26.8818C122.144 26.9852 122.357 27.1604 122.507 27.3851C122.658 27.6099 122.738 27.8741 122.738 28.1444C122.738 28.5069 122.594 28.8545 122.337 29.1108C122.081 29.3671 121.734 29.5111 121.371 29.5111Z" fill="#002A3A"/>
</g>
<defs>
<clipPath id="clip0_457_181">
<rect width="122.896" height="32" fill="white"/>
</clipPath>
</defs>
</svg>
