<svg width="130" height="36" viewBox="0 0 130 36" fill="none" xmlns="http://www.w3.org/2000/svg">
<path d="M33.9968 18.2008C33.7827 17.7699 33.2129 17.4181 32.7306 17.4181H31.7504C31.269 17.4181 30.7058 17.7739 30.4975 18.2079L22.7264 34.4429C22.5105 34.8725 22.7452 35.18 23.2275 35.18H25.0234C25.7323 35.18 26.0573 34.8577 26.249 34.4626C26.4417 34.0675 26.8699 33.2088 26.9517 33.0336C27.0625 32.7967 27.404 32.6515 27.8854 32.6519L36.2469 32.6564C36.7287 32.6573 37.0385 32.7489 37.1811 33.0336C37.274 33.2191 37.7013 33.9915 37.9114 34.413C38.1233 34.8345 38.4791 35.18 39.1697 35.18H41.7755C42.2573 35.18 42.4683 34.8144 42.2949 34.4747C42.1206 34.1341 33.9968 18.2008 33.9968 18.2008ZM29.0873 30.1444C28.6059 30.1444 28.3793 29.7859 28.5818 29.3501L31.644 22.7898C31.8478 22.3527 32.1772 22.3558 32.3761 22.7925L35.3574 29.3528C35.5563 29.7904 35.3252 30.1488 34.8443 30.1488L29.0873 30.1444ZM94.0444 18.3264V34.4327C94.0444 34.876 94.4382 35.18 94.9205 35.18H97.0441C97.5255 35.18 97.9197 34.8725 97.9197 34.3906V18.2937C97.9197 17.8114 97.6086 17.4185 97.1272 17.4185H94.9205C94.4382 17.4181 94.0444 17.7144 94.0444 18.3264V18.3264ZM58.4583 28.4146C58.1816 28.0203 58.3336 27.585 58.7944 27.4473C58.7944 27.4473 60.6292 26.898 61.5075 26.1104C62.3863 25.3206 62.8279 24.1804 62.8279 22.6942C62.8279 21.7225 62.658 20.9054 62.3197 20.2407C61.9813 19.5779 61.4964 19.0353 60.8652 18.62C60.2341 18.2025 59.4787 17.8964 58.5991 17.7046C57.7181 17.5138 56.5296 17.4579 56.5296 17.4579C56.0478 17.436 55.2607 17.4181 54.7797 17.4181H45.961C45.48 17.4181 45.0858 17.811 45.0858 18.2933V34.3906C45.0858 34.8729 45.4796 35.18 45.961 35.18H48.0479C48.5297 35.18 48.9235 34.8725 48.9235 34.3906C48.9235 34.3906 48.9248 27.9882 48.9288 27.9882C48.9324 27.9882 48.9347 27.9846 48.9347 27.9801C48.9347 27.9748 52.8908 27.9703 52.8908 27.9703C53.3718 27.9703 53.993 28.2921 54.2715 28.6863L58.3783 34.4689C58.76 34.9811 59.1229 35.18 59.6043 35.18H62.3322C62.814 35.18 62.8896 34.7259 62.7229 34.4899C62.5579 34.2552 58.4583 28.4146 58.4583 28.4146V28.4146ZM56.7978 25.1454C56.2574 25.2697 55.6491 25.2947 55.6491 25.2947C55.1681 25.3157 54.381 25.3327 53.8992 25.3327H49.8112C49.3293 25.3327 48.9356 24.9385 48.9356 24.4571V21.1955C48.9356 20.7136 49.3293 20.3199 49.8112 20.3199H53.8992C54.381 20.3199 55.1681 20.3373 55.6491 20.3574C55.6491 20.3574 56.2574 20.3815 56.7978 20.5063C57.3382 20.631 57.7668 20.8048 58.0806 21.0297C58.3957 21.2558 58.6205 21.5209 58.7564 21.8257C58.8905 22.1306 58.9589 22.4627 58.9589 22.8252C58.9589 23.1859 58.8905 23.5198 58.7564 23.8241C58.6205 24.129 58.3957 24.394 58.0806 24.6202C57.7668 24.8464 57.3382 25.0225 56.7978 25.1454V25.1454ZM120.117 17.4181C119.636 17.4181 119.247 17.7355 119.247 18.1994C119.247 18.422 119.252 28.4959 119.252 28.4959C119.252 28.9787 118.979 29.0882 118.645 28.7413L108.335 18.0474C108 17.7006 107.51 17.4181 106.851 17.4181H104.912C104.302 17.4181 104.035 17.7435 104.035 18.0729V34.5381C104.035 34.8667 104.348 35.18 104.83 35.18H106.772C107.253 35.18 107.59 34.9181 107.59 34.4747C107.59 34.2521 107.6 23.6275 107.6 23.6275C107.6 23.1461 107.872 23.0361 108.205 23.3839L118.956 34.5596C119.297 34.9015 119.712 35.18 120.45 35.18H121.909C122.391 35.18 122.785 34.7862 122.785 34.3044V18.2937C122.785 17.8114 122.391 17.4185 121.909 17.4185H120.117V17.4181ZM78.0826 27.4581C77.8489 27.8787 77.464 27.8773 77.2334 27.4558L72.1938 18.2008C71.9797 17.7712 71.5403 17.4181 70.9279 17.4181H68.1947C67.7129 17.4181 67.3182 17.811 67.3182 18.2933V34.3701C67.3182 34.851 67.6346 35.18 68.1947 35.18H69.8936C70.3759 35.18 70.7232 34.8761 70.7232 34.4116C70.7232 34.1891 70.7304 22.7188 70.7487 22.7188C70.7675 22.7188 77.0389 34.4085 77.0389 34.4085C77.266 34.8327 77.8234 34.8345 78.0549 34.4121C78.0549 34.4121 84.3778 22.7523 84.3965 22.7523C84.4162 22.7523 84.4091 34.0769 84.4091 34.4116C84.4091 34.8765 84.7805 35.18 85.2628 35.18H87.2196C87.7019 35.18 88.0948 34.94 88.0948 34.3044V18.2937C88.0948 17.8114 87.7019 17.4185 87.2196 17.4185H84.5995C83.9308 17.4185 83.5285 17.7596 83.2894 18.1784L78.0826 27.4581ZM0.384521 26.2834C0.384521 34.957 9.25603 35.3968 11.035 35.3968C16.9221 35.3968 19.4099 33.806 19.5132 33.7372C19.8815 33.5289 20.3298 33.1087 20.3298 32.3216V26.3348C20.3298 25.7832 19.8806 25.334 19.3285 25.334H11.9325C11.3796 25.334 11.0167 25.7832 11.0167 26.3348V26.9548C11.0167 27.5072 11.3796 27.9578 11.9325 27.9578H16.2105C16.6235 27.9578 16.9592 28.293 16.9592 28.706C16.9592 28.706 16.9551 31.3302 16.9551 31.4965C16.1099 31.8415 12.2606 32.9661 9.16753 32.2286C4.68082 31.1554 4.33129 27.454 4.33129 26.3451C4.33129 25.4145 4.6102 20.7525 10.1205 20.281C14.5808 19.8993 17.5179 21.7001 17.5469 21.7176C18.0712 21.9893 18.6138 21.7958 18.9062 21.2406C18.9075 21.2362 19.4626 20.1129 19.4626 20.1129C19.6937 19.6507 19.616 19.1716 19.0519 18.789C19.0143 18.7675 15.8878 17.0721 11.0359 17.0721C0.683099 17.0726 0.384521 25.3407 0.384521 26.2834ZM125.567 32.9688H124.805V32.6939H126.66V32.9688H125.894V35.1988H125.567V32.9688ZM129.235 34.0988C129.217 33.7492 129.194 33.3255 129.194 33.0171H129.187C129.098 33.3067 128.997 33.6227 128.871 33.9687L128.429 35.1836H128.183L127.774 33.991C127.655 33.6344 127.559 33.3143 127.488 33.0171H127.481C127.473 33.3291 127.454 33.7457 127.432 34.1247L127.366 35.1983H127.057L127.232 32.6935H127.645L128.072 33.9052C128.176 34.2136 128.258 34.489 128.325 34.7487H128.333C128.399 34.4961 128.489 34.2212 128.6 33.9052L129.046 32.6935H129.459L129.615 35.1983H129.295L129.235 34.0988Z" fill="black"/>
<path d="M119.137 12.9791L107.519 12.9787C107.093 12.9787 106.728 12.7668 106.515 12.3981C106.302 12.0293 106.302 11.6074 106.515 11.2386L112.325 1.18267C112.537 0.814364 112.903 0.603394 113.329 0.603394C113.754 0.603394 114.12 0.814364 114.332 1.18267L120.141 11.2391C120.354 11.6078 120.354 12.0302 120.141 12.399C119.928 12.7673 119.563 12.9791 119.137 12.9791V12.9791Z" fill="#007CC2"/>
</svg>
