<svg width="200" height="69" viewBox="0 0 200 69" fill="none" xmlns="http://www.w3.org/2000/svg">
<path d="M190.761 8.5437H9.70264L-6.90296e-05 68.3409H181.059L190.761 8.5437Z" fill="#19204E"/>
<path d="M200 0.690918H18.9412L9.23845 60.4882H190.297L200 0.690918Z" fill="#DF1B3F"/>
<path d="M34.6617 18.4468H56.0535L54.5332 27.4025H33.1414L32.1659 33.149C31.8956 34.7412 32.1551 36.1096 32.9443 37.2538C33.7866 38.3486 34.9232 38.8958 36.3539 38.8958H56.7398L55.2196 47.8516H34.8337C33.0006 47.8516 31.3428 47.4785 29.8601 46.7321C28.3858 45.936 27.1549 44.891 26.1675 43.5975C25.2331 42.2542 24.5604 40.6871 24.1491 38.8958C23.7826 37.1045 23.7725 35.1893 24.1188 33.149L28.1475 9.41638H36.1947L34.6617 18.4468ZM57.2481 47.8516L59.7437 33.149C60.0901 31.1092 60.7506 29.1937 61.7253 27.4025C62.7446 25.6114 63.9453 24.069 65.327 22.7754C66.7621 21.432 68.3477 20.3872 70.0838 19.6409C71.8284 18.8448 73.6172 18.4468 75.4502 18.4468H89.8679L88.3476 27.4025H73.93C72.4993 27.4025 71.1729 27.9747 69.9504 29.1191C68.7809 30.2135 68.061 31.5568 67.7908 33.149L65.2952 47.8516H57.2481ZM120.788 47.8516H99.7312C97.8985 47.8516 96.2405 47.4785 94.7578 46.7321C93.2835 45.936 92.0526 44.891 91.0652 43.5975C90.1307 42.2542 89.4581 40.6871 89.0467 38.8958C88.6803 37.1045 88.6702 35.1893 89.0166 33.149C89.3629 31.1092 90.0231 29.1937 90.9978 27.4025C92.0171 25.6114 93.2178 24.069 94.5999 22.7754C96.0349 21.432 97.6205 20.3872 99.3567 19.6409C101.101 18.8448 102.89 18.4468 104.723 18.4468H125.444C127.277 18.4468 128.931 18.8448 130.405 19.6409C131.888 20.3872 133.096 21.432 134.03 22.7754C135.018 24.069 135.695 25.6114 136.061 27.4025C136.473 29.1937 136.505 31.1092 136.159 33.149L133.663 47.8516H125.616L128.112 33.149C128.382 31.5568 128.096 30.2135 127.253 29.1191C126.464 27.9747 125.354 27.4025 123.924 27.4025H103.203C101.772 27.4025 100.445 27.9747 99.2229 29.1191C98.0537 30.2135 97.3339 31.5568 97.0636 33.149C96.7934 34.7412 97.0529 36.1096 97.8422 37.2538C98.6844 38.3486 99.8211 38.8958 101.251 38.8958H122.308L120.788 47.8516ZM180.42 47.8516H149.305C147.472 47.8516 145.814 47.4785 144.332 46.7321C142.857 45.936 141.627 44.891 140.639 43.5975C139.705 42.2542 139.032 40.6871 138.621 38.8958C138.254 37.1045 138.244 35.1893 138.59 33.149C138.936 31.1092 139.597 29.1937 140.572 27.4025C141.591 25.6114 142.792 24.069 144.173 22.7754C145.609 21.432 147.194 20.3872 148.93 19.6409C150.675 18.8448 152.464 18.4468 154.297 18.4468H185.412L183.892 27.4025H152.776C151.346 27.4025 150.019 27.9747 148.797 29.1191C147.627 30.2135 146.907 31.5568 146.637 33.149C146.367 34.7412 146.626 36.1096 147.416 37.2538C148.258 38.3486 149.395 38.8958 150.825 38.8958H181.941L180.42 47.8516Z" fill="white"/>
</svg>
