<svg width="109" height="40" viewBox="0 0 109 40" fill="none" xmlns="http://www.w3.org/2000/svg">
<path d="M10.1875 12.5139H21.6715L20.7391 16.7321H9.25505L8.65673 19.4387C8.49096 20.1886 8.61251 20.8331 9.02136 21.3721C9.4594 21.8876 10.0624 22.1454 10.8304 22.1454H21.7744L20.842 26.3636H9.89797C8.91397 26.3636 8.02882 26.1878 7.24253 25.8363C6.46141 25.4613 5.81419 24.9692 5.30088 24.3599C4.81675 23.7272 4.47593 22.989 4.27841 22.1454C4.1049 21.3018 4.12434 20.3995 4.33673 19.4387L6.80771 8.26058H11.1277L10.1875 12.5139ZM21.931 26.3636L23.4617 19.4387C23.6741 18.4779 24.0536 17.5757 24.6001 16.7321C25.1705 15.8884 25.8351 15.162 26.5938 14.5527C27.3817 13.92 28.2465 13.4278 29.1882 13.0763C30.1351 12.7014 31.1005 12.5139 32.0845 12.5139H39.8245L38.8921 16.7321H31.1521C30.3841 16.7321 29.6645 17.0016 28.9933 17.5406C28.3514 18.0561 27.9475 18.6888 27.7817 19.4387L26.251 26.3636H21.931ZM56.0418 26.3636H44.7378C43.7538 26.3636 42.8687 26.1878 42.0824 25.8363C41.3013 25.4613 40.654 24.9692 40.1407 24.3599C39.6566 23.7272 39.3158 22.989 39.1183 22.1454C38.9447 21.3018 38.9642 20.3995 39.1766 19.4387C39.389 18.4779 39.7684 17.5757 40.3149 16.7321C40.8854 15.8884 41.55 15.162 42.3087 14.5527C43.0965 13.92 43.9613 13.4278 44.903 13.0763C45.8499 12.7014 46.8153 12.5139 47.7993 12.5139H58.9233C59.9073 12.5139 60.7899 12.7014 61.571 13.0763C62.3573 13.4278 62.9925 13.92 63.4767 14.5527C63.99 15.162 64.3334 15.8884 64.5069 16.7321C64.7044 17.5757 64.697 18.4779 64.4846 19.4387L62.9538 26.3636H58.6338L60.1646 19.4387C60.3303 18.6888 60.1942 18.0561 59.7562 17.5406C59.3473 17.0016 58.7589 16.7321 57.9909 16.7321H46.8669C46.0989 16.7321 45.3793 17.0016 44.7082 17.5406C44.0662 18.0561 43.6623 18.6888 43.4966 19.4387C43.3308 20.1886 43.4524 20.8331 43.8612 21.3721C44.2992 21.8876 44.9023 22.1454 45.6703 22.1454H56.9743L56.0418 26.3636ZM88.0551 26.3636H71.3511C70.3671 26.3636 69.4819 26.1878 68.6957 25.8363C67.9145 25.4613 67.2673 24.9692 66.754 24.3599C66.2699 23.7272 65.9291 22.989 65.7315 22.1454C65.558 21.3018 65.5775 20.3995 65.7899 19.4387C66.0022 18.4779 66.3817 17.5757 66.9282 16.7321C67.4987 15.8884 68.1633 15.162 68.9219 14.5527C69.7098 13.92 70.5746 13.4278 71.5163 13.0763C72.4632 12.7014 73.4286 12.5139 74.4126 12.5139H91.1166L90.1842 16.7321H73.4802C72.7122 16.7321 71.9926 17.0016 71.3215 17.5406C70.6795 18.0561 70.2756 18.6888 70.1099 19.4387C69.9441 20.1886 70.0656 20.8331 70.4745 21.3721C70.9125 21.8876 71.5155 22.1454 72.2835 22.1454H88.9875L88.0551 26.3636Z" fill="#DF1B3F"/>
<path d="M10.1875 12.5139H9.68749L9.57957 13.0021H10.0796L10.1875 12.5139ZM21.6715 12.5139H22.1715L22.2794 12.0257H21.7794L21.6715 12.5139ZM20.7391 16.7321L20.6311 17.2203H21.1311L21.2391 16.7321H20.7391ZM9.25505 16.7321L9.36297 16.2439H8.86297L8.75505 16.7321H9.25505ZM9.02136 21.3721L8.58544 21.7095L8.59139 21.7174L8.59776 21.7249L9.02136 21.3721ZM21.7744 22.1454H22.2744L22.3823 21.6572H21.8823L21.7744 22.1454ZM20.842 26.3636L20.734 26.8518H21.234L21.342 26.3636H20.842ZM7.24253 25.8363L6.94075 26.2825L6.9506 26.2869L7.24253 25.8363ZM5.30088 24.3599L4.86586 24.6986L4.87094 24.7052L4.87632 24.7116L5.30088 24.3599ZM4.27841 22.1454L3.77523 22.3332L3.77768 22.3437L4.27841 22.1454ZM6.80771 8.26058L6.91563 7.77237H6.41563L6.30771 8.26058H6.80771ZM11.1277 8.26058H11.6277L11.7356 7.77237H11.2356L11.1277 8.26058ZM10.0796 13.0021H21.5636L21.7794 12.0257H10.2954L10.0796 13.0021ZM21.1715 12.5139L20.2391 16.7321H21.2391L22.1715 12.5139H21.1715ZM20.847 16.2439H9.36297L9.14713 17.2203H20.6311L20.847 16.2439ZM8.75505 16.7321L8.15673 19.4387H9.15673L9.75505 16.7321H8.75505ZM8.15673 19.4387C7.96334 20.3136 8.10725 21.0791 8.58544 21.7095L9.45728 21.0346C9.11776 20.587 9.01859 20.0637 9.15673 19.4387H8.15673ZM8.59776 21.7249C9.11008 22.3278 9.82651 22.6336 10.7225 22.6336L10.9383 21.6572C10.2983 21.6572 9.80871 21.4474 9.44496 21.0193L8.59776 21.7249ZM10.7225 22.6336H21.6665L21.8823 21.6572H10.9383L10.7225 22.6336ZM21.2744 22.1454L20.342 26.3636H21.342L22.2744 22.1454H21.2744ZM20.9499 25.8753H10.0059L9.79005 26.8518H20.734L20.9499 25.8753ZM10.0059 25.8753C9.08446 25.8753 8.26247 25.7111 7.53445 25.3856L6.9506 26.2869C7.79517 26.6645 8.74348 26.8518 9.79005 26.8518L10.0059 25.8753ZM7.54422 25.3902C6.8087 25.0371 6.20388 24.5761 5.72544 24.0083L4.87632 24.7116C5.42451 25.3623 6.11412 25.8856 6.94084 26.2824L7.54422 25.3902ZM5.7359 24.0213C5.28466 23.4315 4.96513 22.7415 4.77915 21.9471L3.77768 22.3437C3.98672 23.2366 4.34883 24.0229 4.86586 24.6986L5.7359 24.0213ZM4.78146 21.9576C4.62081 21.1765 4.63785 20.3384 4.83673 19.4387H3.83673C3.61084 20.4606 3.589 21.427 3.77537 22.3332L4.78146 21.9576ZM4.83673 19.4387L7.30771 8.26058H6.30771L3.83673 19.4387H4.83673ZM6.69979 8.74879H11.0198L11.2356 7.77237H6.91563L6.69979 8.74879ZM10.6277 8.26058L9.68749 12.5139H10.6875L11.6277 8.26058H10.6277ZM21.931 26.3636H21.431L21.323 26.8518H21.823L21.931 26.3636ZM24.6001 16.7321L24.1869 16.5337L24.18 16.5443L24.6001 16.7321ZM26.5938 14.5527L26.3166 14.2075L26.3166 14.2075L26.5938 14.5527ZM29.1882 13.0763L29.2809 13.5271L29.2926 13.5225L29.1882 13.0763ZM39.8245 12.5139H40.3245L40.4324 12.0257H39.9324L39.8245 12.5139ZM38.8921 16.7321L38.7841 17.2203H39.2841L39.3921 16.7321H38.8921ZM26.251 26.3636L26.143 26.8518H26.643L26.751 26.3636H26.251ZM22.431 26.3636L23.9617 19.4387H22.9617L21.431 26.3636H22.431ZM23.9617 19.4387C24.1606 18.539 24.5141 17.701 25.0201 16.9198L24.18 16.5443C23.593 17.4505 23.1876 18.4168 22.9617 19.4387H23.9617ZM25.0131 16.9304C25.5492 16.1375 26.1688 15.4619 26.8711 14.8979L26.3166 14.2075C25.5015 14.8621 24.7918 15.6393 24.187 16.5338L25.0131 16.9304ZM26.8711 14.8979C27.6016 14.3112 28.4034 13.8545 29.2809 13.527L29.0955 12.6257C28.0895 13.0012 27.1618 13.5287 26.3166 14.2075L26.8711 14.8979ZM29.2926 13.5225C30.1666 13.1764 31.0596 13.0021 31.9766 13.0021L32.1924 12.0257C31.1414 12.0257 30.1035 12.2264 29.0837 12.6302L29.2926 13.5225ZM31.9766 13.0021H39.7166L39.9324 12.0257H32.1924L31.9766 13.0021ZM39.3245 12.5139L38.3921 16.7321H39.3921L40.3245 12.5139H39.3245ZM39 16.2439H31.26L31.0441 17.2203H38.7841L39 16.2439ZM31.26 16.2439C30.3569 16.2439 29.4991 16.5665 28.7161 17.1953L29.2706 17.8858C29.8298 17.4366 30.4112 17.2203 31.0441 17.2203L31.26 16.2439ZM28.7161 17.1953C27.9565 17.8053 27.4752 18.5635 27.2817 19.4387H28.2817C28.4198 18.8142 28.7462 18.3069 29.2706 17.8858L28.7161 17.1953ZM27.2817 19.4387L25.751 26.3636H26.751L28.2817 19.4387H27.2817ZM26.3589 25.8753H22.0389L21.823 26.8518H26.143L26.3589 25.8753ZM56.0418 26.3636L55.9339 26.8518H56.4339L56.5418 26.3636H56.0418ZM42.0824 25.8363L41.7806 26.2825L41.7904 26.2869L42.0824 25.8363ZM40.1407 24.3599L39.7057 24.6986L39.7108 24.7052L39.7162 24.7116L40.1407 24.3599ZM39.1183 22.1454L38.6151 22.3332L38.6175 22.3437L39.1183 22.1454ZM40.3149 16.7321L39.9017 16.5337L39.8949 16.5443L40.3149 16.7321ZM42.3087 14.5527L42.0314 14.2075L42.0314 14.2075L42.3087 14.5527ZM44.903 13.0763L44.9957 13.5271L45.0075 13.5225L44.903 13.0763ZM61.571 13.0763L61.2692 13.5226L61.2791 13.527L61.571 13.0763ZM63.4767 14.5527L63.0416 14.8913L63.0467 14.898L63.0521 14.9044L63.4767 14.5527ZM64.5069 16.7321L64.0037 16.9199L64.0062 16.9304L64.5069 16.7321ZM62.9538 26.3636L62.8459 26.8518H63.3459L63.4538 26.3636H62.9538ZM58.6338 26.3636H58.1338L58.0259 26.8518H58.5259L58.6338 26.3636ZM59.7562 17.5406L59.3203 17.878L59.3262 17.8859L59.3326 17.8934L59.7562 17.5406ZM43.8612 21.3721L43.4253 21.7095L43.4312 21.7174L43.4376 21.7249L43.8612 21.3721ZM56.9743 22.1454H57.4743L57.5822 21.6572H57.0822L56.9743 22.1454ZM56.1497 25.8753H44.8457L44.6299 26.8518H55.9339L56.1497 25.8753ZM44.8457 25.8753C43.9243 25.8753 43.1023 25.7111 42.3743 25.3856L41.7904 26.2869C42.635 26.6645 43.5833 26.8518 44.6299 26.8518L44.8457 25.8753ZM42.3841 25.3902C41.6485 25.0371 41.0437 24.5761 40.5653 24.0083L39.7162 24.7116C40.2644 25.3623 40.954 25.8856 41.7807 26.2824L42.3841 25.3902ZM40.5757 24.0213C40.1245 23.4315 39.805 22.7415 39.619 21.9471L38.6175 22.3437C38.8266 23.2366 39.1887 24.0229 39.7057 24.6986L40.5757 24.0213ZM39.6213 21.9576C39.4607 21.1765 39.4777 20.3384 39.6766 19.4387H38.6766C38.4507 20.4606 38.4288 21.427 38.6152 22.3332L39.6213 21.9576ZM39.6766 19.4387C39.8755 18.539 40.2289 17.701 40.7349 16.9198L39.8949 16.5443C39.3079 17.4505 38.9025 18.4168 38.6766 19.4387H39.6766ZM40.728 16.9304C41.2641 16.1375 41.8836 15.4619 42.5859 14.8979L42.0314 14.2075C41.2163 14.8621 40.5067 15.6393 39.9018 16.5338L40.728 16.9304ZM42.5859 14.8979C43.3164 14.3112 44.1183 13.8545 44.9957 13.527L44.8103 12.6257C43.8044 13.0012 42.8766 13.5287 42.0314 14.2075L42.5859 14.8979ZM45.0075 13.5225C45.8814 13.1764 46.7745 13.0021 47.6914 13.0021L47.9073 12.0257C46.8562 12.0257 45.8184 12.2264 44.7986 12.6302L45.0075 13.5225ZM47.6914 13.0021H58.8154L59.0313 12.0257H47.9073L47.6914 13.0021ZM58.8154 13.0021C59.7324 13.0021 60.5484 13.1764 61.2693 13.5225L61.8727 12.6302C61.0314 12.2264 60.0823 12.0257 59.0313 12.0257L58.8154 13.0021ZM61.2791 13.527C62.0102 13.8538 62.5959 14.3087 63.0416 14.8913L63.9117 14.214C63.3892 13.5312 62.7044 13.0018 61.8629 12.6257L61.2791 13.527ZM63.0521 14.9044C63.5248 15.4654 63.8425 16.1354 64.0038 16.9198L65.0099 16.5443C64.8243 15.6415 64.4552 14.8586 63.9012 14.201L63.0521 14.9044ZM64.0062 16.9304C64.1885 17.709 64.1825 18.5434 63.9846 19.4387H64.9846C65.2114 18.4125 65.2204 17.4424 65.0076 16.5338L64.0062 16.9304ZM63.9846 19.4387L62.4538 26.3636H63.4538L64.9846 19.4387H63.9846ZM63.0617 25.8753H58.7417L58.5259 26.8518H62.8459L63.0617 25.8753ZM59.1338 26.3636L60.6646 19.4387H59.6646L58.1338 26.3636H59.1338ZM60.6646 19.4387C60.8596 18.5564 60.6965 17.796 60.1798 17.1877L59.3326 17.8934C59.6919 18.3162 59.8011 18.8213 59.6646 19.4387H60.6646ZM60.1921 17.2031C59.7098 16.5672 59.0024 16.2439 58.0988 16.2439L57.883 17.2203C58.5153 17.2203 58.9849 17.4359 59.3203 17.878L60.1921 17.2031ZM58.0988 16.2439H46.9748L46.759 17.2203H57.883L58.0988 16.2439ZM46.9748 16.2439C46.0718 16.2439 45.214 16.5665 44.4309 17.1953L44.9854 17.8858C45.5447 17.4366 46.126 17.2203 46.759 17.2203L46.9748 16.2439ZM44.4309 17.1953C43.6714 17.8053 43.1901 18.5635 42.9966 19.4387H43.9966C44.1346 18.8142 44.461 18.3069 44.9854 17.8858L44.4309 17.1953ZM42.9966 19.4387C42.8032 20.3136 42.9471 21.0791 43.4253 21.7095L44.2971 21.0346C43.9576 20.587 43.8584 20.0637 43.9966 19.4387H42.9966ZM43.4376 21.7249C43.9499 22.3278 44.6664 22.6336 45.5623 22.6336L45.7782 21.6572C45.1382 21.6572 44.6486 21.4474 44.2848 21.0193L43.4376 21.7249ZM45.5623 22.6336H56.8663L57.0822 21.6572H45.7782L45.5623 22.6336ZM56.4743 22.1454L55.5418 26.3636H56.5418L57.4743 22.1454H56.4743ZM88.0551 26.3636L87.9472 26.8518H88.4472L88.5551 26.3636H88.0551ZM68.6957 25.8363L68.3939 26.2825L68.4037 26.2869L68.6957 25.8363ZM66.754 24.3599L66.319 24.6986L66.3241 24.7052L66.3294 24.7116L66.754 24.3599ZM65.7315 22.1454L65.2284 22.3332L65.2308 22.3437L65.7315 22.1454ZM66.9282 16.7321L66.515 16.5337L66.5081 16.5443L66.9282 16.7321ZM68.9219 14.5527L68.6447 14.2075L68.6447 14.2075L68.9219 14.5527ZM71.5163 13.0763L71.609 13.5271L71.6207 13.5225L71.5163 13.0763ZM91.1166 12.5139H91.6166L91.7245 12.0257H91.2245L91.1166 12.5139ZM90.1842 16.7321L90.0763 17.2203H90.5763L90.6842 16.7321H90.1842ZM70.4745 21.3721L70.0386 21.7095L70.0445 21.7174L70.0509 21.7249L70.4745 21.3721ZM88.9875 22.1454H89.4875L89.5955 21.6572H89.0955L88.9875 22.1454ZM88.163 25.8753H71.459L71.2432 26.8518H87.9472L88.163 25.8753ZM71.459 25.8753C70.5376 25.8753 69.7156 25.7111 68.9876 25.3856L68.4037 26.2869C69.2483 26.6645 70.1966 26.8518 71.2432 26.8518L71.459 25.8753ZM68.9973 25.3902C68.2618 25.0371 67.657 24.5761 67.1786 24.0083L66.3294 24.7116C66.8776 25.3623 67.5672 25.8856 68.394 26.2824L68.9973 25.3902ZM67.189 24.0213C66.7378 23.4315 66.4183 22.7415 66.2323 21.9471L65.2308 22.3437C65.4398 23.2366 65.802 24.0229 66.319 24.6986L67.189 24.0213ZM66.2346 21.9576C66.0739 21.1765 66.091 20.3384 66.2899 19.4387H65.2899C65.064 20.4606 65.0421 21.427 65.2285 22.3332L66.2346 21.9576ZM66.2899 19.4387C66.4887 18.539 66.8422 17.701 67.3482 16.9198L66.5081 16.5443C65.9212 17.4505 65.5158 18.4168 65.2899 19.4387H66.2899ZM67.3412 16.9304C67.8774 16.1375 68.4969 15.4619 69.1992 14.8979L68.6447 14.2075C67.8296 14.8621 67.12 15.6393 66.5151 16.5338L67.3412 16.9304ZM69.1992 14.8979C69.9297 14.3112 70.7315 13.8545 71.609 13.527L71.4236 12.6257C70.4176 13.0012 69.4899 13.5287 68.6447 14.2075L69.1992 14.8979ZM71.6207 13.5225C72.4947 13.1764 73.3877 13.0021 74.3047 13.0021L74.5205 12.0257C73.4695 12.0257 72.4317 12.2264 71.4118 12.6302L71.6207 13.5225ZM74.3047 13.0021H91.0087L91.2245 12.0257H74.5205L74.3047 13.0021ZM90.6166 12.5139L89.6842 16.7321H90.6842L91.6166 12.5139H90.6166ZM90.2921 16.2439H73.5881L73.3723 17.2203H90.0763L90.2921 16.2439ZM73.5881 16.2439C72.6851 16.2439 71.8273 16.5665 71.0442 17.1953L71.5987 17.8858C72.1579 17.4366 72.7393 17.2203 73.3723 17.2203L73.5881 16.2439ZM71.0442 17.1953C70.2847 17.8053 69.8033 18.5635 69.6099 19.4387H70.6099C70.7479 18.8142 71.0743 18.3069 71.5987 17.8858L71.0442 17.1953ZM69.6099 19.4387C69.4165 20.3136 69.5604 21.0791 70.0386 21.7095L70.9104 21.0346C70.5709 20.587 70.4717 20.0637 70.6099 19.4387H69.6099ZM70.0509 21.7249C70.5632 22.3278 71.2796 22.6336 72.1756 22.6336L72.3915 21.6572C71.7514 21.6572 71.2618 21.4474 70.8981 21.0193L70.0509 21.7249ZM72.1756 22.6336H88.8796L89.0955 21.6572H72.3915L72.1756 22.6336ZM88.4875 22.1454L87.5551 26.3636H88.5551L89.4875 22.1454H88.4875Z" fill="black"/>
</svg>
