<svg width="116" height="24" viewBox="0 0 116 24" fill="none" xmlns="http://www.w3.org/2000/svg">
<path d="M0.584729 19.2101L4.25143 14.8219C6.4961 16.5313 9.05156 17.2515 11.4615 17.2515C12.6973 17.2515 13.2338 16.9222 13.2338 16.366V16.3043C13.2338 15.7074 12.5949 15.3978 10.391 14.9452C5.77583 13.998 1.71816 12.6796 1.71816 8.33208V8.27042C1.71816 4.35582 4.76696 1.32675 10.4526 1.32675C14.4289 1.32675 17.3544 2.27395 19.7433 4.14862L16.364 8.80445C14.563 7.50704 12.4033 6.8015 10.1838 6.78548C9.15393 6.78548 8.6791 7.13575 8.6791 7.63032V7.69198C8.6791 8.24698 9.2341 8.59848 11.4196 9.01165C16.6933 9.97982 20.2157 11.503 20.2157 15.6655V15.7062C20.2157 20.0327 16.639 22.6696 11.131 22.6696C6.94996 22.6905 3.20063 21.5164 0.583496 19.2088L0.584729 19.2101ZM27.0767 7.55015H21.0211V1.72018H40.0144V7.55015H33.9587V22.3008H27.0767V7.55015ZM57.0924 15.2955C59.5837 14.0794 61.15 11.9988 61.15 9.01165V8.94998C61.15 6.82865 60.5112 5.30302 59.2754 4.06598C57.8324 2.62298 55.5051 1.71772 51.8593 1.71772H41.8077V22.2983H48.6897V16.4277H50.1524L54.0251 22.2983H61.874L57.0924 15.2955ZM54.2902 9.50622C54.2902 10.7642 53.2814 11.5042 51.6534 11.5042H48.6884V7.48725H51.6978C53.2838 7.48725 54.3124 8.12612 54.3124 9.46552V9.50622H54.2902ZM71.6777 0.853149L60.5741 22.3008H67.9494L71.6777 14.8021L75.4061 22.3008H82.7815L71.6777 0.853149ZM104.312 0.853149L93.2081 22.3008H100.583L104.312 14.8021L108.04 22.3008H115.415L104.312 0.853149ZM87.9948 23.1456L99.1194 1.69798H91.7441L88.0157 9.19665L84.2664 1.69798H76.8911L87.9948 23.1456Z" fill="#FC6100"/>
</svg>
